# xmcd
# Track frame offsets:
# 150
# 16928
# 30029
# 49266
# 64849
# 78221
# 93377
# 111832
# 132671
# 156017
# 168687
# 194818
#
# Disc length: 2834 seconds
# Revision: 0
# Processed by: cddbd v1.5.2PL0 Copyright (c) Steve Scherf et al.
# Submitted via: VisiTrax 2.9.10.228 - For more info visit www.synapsa.com
#
DISCID=9c0b100c
DTITLE=Colville.John - The Best View Of Australia.
DYEAR=2006
DGENRE=
TTITLE0=Best View Of Australia.The.
TTITLE1=Getting Away From It All
TTITLE2=Pineapple Pie
TTITLE3=Man From Humpty Doo.The
TTITLE4=Mulga Fever
TTITLE5=When The Children come Home
TTITLE6=Leaving The Land
TTITLE7=Goorianawa
TTITLE8=A Bushman Can't Survive
TTITLE9=Catching Yellowbelly
TTITLE10=Johnny Stewart.Drover
TTITLE11=Billy Of Tea
EXTD=
EXTT0=
EXTT1=
EXTT2=
EXTT3=
EXTT4=
EXTT5=
EXTT6=
EXTT7=
EXTT8=
EXTT9=
EXTT10=
EXTT11=
PLAYORDER=
